<svg width="33" height="23" viewBox="0 0 33 23" fill="none" xmlns="http://www.w3.org/2000/svg">
  <path
    d="M31.8214 19.7143H1.17857C0.865995 19.7143 0.566221 19.8008 0.345196 19.9549C0.124171 20.1089 0 20.3179 0 20.5357L0 22.1786C0 22.3964 0.124171 22.6054 0.345196 22.7594C0.566221 22.9135 0.865995 23 1.17857 23H31.8214C32.134 23 32.4338 22.9135 32.6548 22.7594C32.8758 22.6054 33 22.3964 33 22.1786V20.5357C33 20.3179 32.8758 20.1089 32.6548 19.9549C32.4338 19.8008 32.134 19.7143 31.8214 19.7143ZM31.8214 13.1429H1.17857C0.865995 13.1429 0.566221 13.2294 0.345196 13.3834C0.124171 13.5375 0 13.7464 0 13.9643L0 15.6071C0 15.825 0.124171 16.0339 0.345196 16.188C0.566221 16.342 0.865995 16.4286 1.17857 16.4286H31.8214C32.134 16.4286 32.4338 16.342 32.6548 16.188C32.8758 16.0339 33 15.825 33 15.6071V13.9643C33 13.7464 32.8758 13.5375 32.6548 13.3834C32.4338 13.2294 32.134 13.1429 31.8214 13.1429ZM31.8214 6.57143H1.17857C0.865995 6.57143 0.566221 6.65797 0.345196 6.81202C0.124171 6.96607 0 7.175 0 7.39286L0 9.03571C0 9.25357 0.124171 9.46251 0.345196 9.61655C0.566221 9.7706 0.865995 9.85714 1.17857 9.85714H31.8214C32.134 9.85714 32.4338 9.7706 32.6548 9.61655C32.8758 9.46251 33 9.25357 33 9.03571V7.39286C33 7.175 32.8758 6.96607 32.6548 6.81202C32.4338 6.65797 32.134 6.57143 31.8214 6.57143ZM31.8214 0H1.17857C0.865995 0 0.566221 0.0865431 0.345196 0.240591C0.124171 0.394639 0 0.603572 0 0.821429L0 2.46429C0 2.68214 0.124171 2.89108 0.345196 3.04512C0.566221 3.19917 0.865995 3.28571 1.17857 3.28571H31.8214C32.134 3.28571 32.4338 3.19917 32.6548 3.04512C32.8758 2.89108 33 2.68214 33 2.46429V0.821429C33 0.603572 32.8758 0.394639 32.6548 0.240591C32.4338 0.0865431 32.134 0 31.8214 0Z"
    fill="white" />
</svg>